<svg width="15" height="18" viewBox="0 0 15 18" fill="none" xmlns="http://www.w3.org/2000/svg">
<path d="M7.26775 0.923828C11.0401 0.923828 14.098 3.98168 14.098 7.75408C14.098 10.6403 12.0699 13.7857 8.06636 17.224C7.84375 17.4152 7.55991 17.5202 7.26644 17.52C6.97296 17.5197 6.68931 17.4142 6.46703 17.2226L6.20223 16.9928C2.37589 13.6442 0.4375 10.5758 0.4375 7.75408C0.4375 3.98168 3.49535 0.923828 7.26775 0.923828ZM7.26775 5.12706C6.57102 5.12706 5.90283 5.40383 5.41017 5.89649C4.9175 6.38915 4.64073 7.05735 4.64073 7.75408C4.64073 8.4508 4.9175 9.119 5.41017 9.61166C5.90283 10.1043 6.57102 10.3811 7.26775 10.3811C7.96448 10.3811 8.63267 10.1043 9.12533 9.61166C9.61799 9.119 9.89477 8.4508 9.89477 7.75408C9.89477 7.05735 9.61799 6.38915 9.12533 5.89649C8.63267 5.40383 7.96448 5.12706 7.26775 5.12706Z" fill="#E996BF"/>
</svg>
