<svg width="15" height="20" viewBox="0 0 15 20" fill="none" xmlns="http://www.w3.org/2000/svg">
<g id="Frame" clip-path="url(#clip0_1885_12265)">
<path id="Vector" d="M-4.608 11.4068H5.42518C5.34482 11.4902 5.29227 11.549 5.23973 11.6046C4.58445 12.26 3.92608 12.9123 3.27389 13.5739C2.92462 13.9263 2.89989 14.4395 3.19044 14.8197C3.47171 15.1876 3.99408 15.2989 4.39899 15.0701C4.50408 15.0114 4.5999 14.9248 4.68645 14.8383C5.90737 13.6202 7.1252 12.4022 8.34303 11.1842C8.81285 10.7143 8.81285 10.1702 8.34303 9.69718C7.11593 8.46679 5.88264 7.23949 4.65554 6.00909C4.37426 5.72777 4.04044 5.62575 3.66026 5.74014C3.3048 5.84525 3.08844 6.09875 3.01425 6.46044C2.94316 6.80669 3.05753 7.09728 3.3048 7.3446C3.94462 7.98452 4.58445 8.62136 5.22118 9.26129C5.27991 9.32003 5.33555 9.38186 5.42209 9.47151H-4.608C-4.608 9.38804 -4.608 9.31075 -4.608 9.23656C-4.608 7.75267 -4.61109 6.26877 -4.608 4.78488C-4.59873 2.90219 -3.34072 1.37811 -1.48615 1.01642C-1.23579 0.966953 -0.97924 0.948404 -0.725783 0.948404C3.02043 0.945312 6.76974 0.945312 10.516 0.945312C12.7198 0.945312 14.3858 2.61469 14.3889 4.82198C14.392 8.56881 14.392 12.3187 14.3889 16.0656C14.3889 18.2698 12.7198 19.9391 10.516 19.9422C6.76974 19.9453 3.02043 19.9453 -0.725783 19.9422C-2.93889 19.9422 -4.60182 18.2728 -4.608 16.0532C-4.608 14.5848 -4.608 13.1163 -4.608 11.6479C-4.608 11.5737 -4.608 11.4964 -4.608 11.4068Z" fill="#D9B7C8"/>
</g>
<defs>
<clipPath id="clip0_1885_12265">
<rect width="19" height="19" fill="white" transform="translate(-4.60938 0.945312)"/>
</clipPath>
</defs>
</svg>
