<svg width="15" height="18" viewBox="0 0 15 18" fill="none" xmlns="http://www.w3.org/2000/svg">
<path id="Vector" d="M7.72087 0.869141C11.4933 0.869141 14.5511 3.92699 14.5511 7.69939C14.5511 10.5856 12.5231 13.731 8.51949 17.1693C8.29687 17.3605 8.01304 17.4655 7.71956 17.4653C7.42608 17.465 7.14244 17.3595 6.92016 17.1679L6.65535 16.9381C2.82901 13.5895 0.890625 10.5212 0.890625 7.69939C0.890625 3.92699 3.94847 0.869141 7.72087 0.869141ZM7.72087 5.07237C7.02414 5.07237 6.35595 5.34914 5.86329 5.84181C5.37063 6.33447 5.09385 7.00266 5.09385 7.69939C5.09385 8.39612 5.37063 9.06431 5.86329 9.55697C6.35595 10.0496 7.02414 10.3264 7.72087 10.3264C8.4176 10.3264 9.08579 10.0496 9.57846 9.55697C10.0711 9.06431 10.3479 8.39612 10.3479 7.69939C10.3479 7.00266 10.0711 6.33447 9.57846 5.84181C9.08579 5.34914 8.4176 5.07237 7.72087 5.07237Z" fill="#E996BF"/>
</svg>
