<svg width="26" height="26" viewBox="0 0 26 26" fill="none" xmlns="http://www.w3.org/2000/svg">
<path d="M13.424 0.0976562C13.4887 0.130378 13.5534 0.17128 13.6181 0.204002C14.0791 0.424873 14.3379 0.784812 14.3541 1.30018C14.3703 1.69284 14.3622 2.0855 14.3541 2.46998C14.3541 2.63359 14.4026 2.70721 14.5725 2.73993C18.1798 3.40255 20.865 6.02846 21.6092 9.65239C21.7386 10.2659 21.7628 10.9122 21.779 11.5421C21.8114 12.8591 21.7547 14.1843 21.8356 15.5014C21.9731 17.751 22.9275 19.6325 24.5856 21.1377C25.0628 21.5713 25.4268 22.0539 25.4834 22.7247C25.5966 24.0418 24.6907 25.0807 23.3724 25.1543C23.2915 25.1543 23.2187 25.1543 23.1378 25.1543C16.457 25.1543 9.76811 25.1543 3.0873 25.1543C2.31893 25.1543 1.66379 24.9171 1.1785 24.2872C0.458656 23.3546 0.61233 22.0703 1.54247 21.2359C2.35937 20.5078 3.0226 19.6734 3.52406 18.6918C4.15494 17.4483 4.44611 16.1231 4.44611 14.7324C4.44611 13.5299 4.42993 12.3274 4.4542 11.1249C4.52699 7.00193 7.5924 3.41891 11.6041 2.74811C11.8306 2.70721 11.8953 2.62541 11.8791 2.41272C11.8629 2.17548 11.8953 1.93825 11.8791 1.7092C11.8063 0.93206 12.0975 0.383971 12.8254 0.0976563C13.0195 0.0976563 13.2137 0.0976563 13.4078 0.0976563L13.424 0.0976562Z" fill="#D9B7C8"/>
</svg>
